<?xml version="1.0" standalone="no"?>
<!DOCTYPE svg PUBLIC "-//W3C//DTD SVG 20010904//EN"
 "http://www.w3.org/TR/2001/REC-SVG-20010904/DTD/svg10.dtd">
<svg version="1.0" xmlns="http://www.w3.org/2000/svg"
 width="200.000000pt" height="200.000000pt" viewBox="0 0 200.000000 200.000000"
 preserveAspectRatio="xMidYMid meet">

<g transform="translate(0.000000,200.000000) scale(0.100000,-0.100000)"
fill="#000000" stroke="none">
<path d="M0 1000 l0 -1000 1000 0 1000 0 0 1000 0 1000 -1000 0 -1000 0 0
-1000z m700 322 c0 -4 -9 -40 -20 -80 -11 -39 -20 -74 -20 -77 0 -3 68 -5 151
-5 l151 0 29 -29 c38 -38 37 -55 -9 -228 -64 -234 -53 -227 -355 -231 -126 -2
-233 0 -237 5 -6 6 141 579 164 639 4 10 24 14 76 14 38 0 70 -3 70 -8z m916
-178 c-4 -9 -11 -36 -17 -60 l-11 -44 -192 -2 -191 -3 -3 -27 -3 -28 146 0
c189 0 225 -16 225 -103 0 -88 -48 -172 -113 -196 -35 -14 -467 -15 -467 -2 0
5 5 32 12 60 l11 51 193 0 c181 0 194 1 204 19 5 11 10 29 10 40 0 20 -5 21
-147 21 -166 0 -189 7 -215 60 -16 33 -16 40 -2 95 18 68 32 90 71 116 25 17
51 19 262 19 211 0 233 -2 227 -16z"/>
<path d="M596 933 c-16 -60 -31 -116 -34 -126 -4 -16 5 -17 119 -15 l124 3 32
115 c17 63 29 118 27 122 -3 4 -58 8 -122 8 l-117 0 -29 -107z"/>
</g>
</svg>
