<?xml version="1.0" standalone="no"?>
<!DOCTYPE svg PUBLIC "-//W3C//DTD SVG 20010904//EN"
 "http://www.w3.org/TR/2001/REC-SVG-20010904/DTD/svg10.dtd">
<svg version="1.0" xmlns="http://www.w3.org/2000/svg"
 width="677.000000pt" height="600.000000pt" viewBox="0 0 677.000000 600.000000"
 preserveAspectRatio="xMidYMid meet">

<g transform="translate(0.000000,600.000000) scale(0.100000,-0.100000)"
fill="#000000" stroke="none">
<path d="M2040 5624 c-144 -39 -252 -159 -280 -313 -21 -118 12 -230 97 -321
192 -208 522 -157 641 98 24 50 27 69 27 162 0 96 -3 110 -29 165 -54 109
-156 189 -274 214 -69 14 -114 13 -182 -5z"/>
<path d="M3940 5250 l-155 -5 -3 -445 c-1 -245 0 -455 3 -467 l5 -23 460 0
c444 0 460 1 470 19 6 13 10 175 10 460 0 380 -2 442 -15 455 -13 13 -59 15
-318 13 -166 0 -372 -4 -457 -7z m196 -215 c8 -34 51 -35 56 -2 2 12 10 22 18
22 8 0 16 -10 18 -22 2 -17 10 -23 27 -23 17 0 25 6 27 23 2 12 10 22 18 22 8
0 16 -10 18 -22 2 -17 10 -23 27 -23 17 0 25 6 27 23 4 28 32 29 36 0 2 -16
11 -23 35 -25 28 -3 32 -7 35 -35 2 -24 9 -33 25 -35 29 -4 28 -32 0 -36 -17
-2 -23 -10 -23 -27 0 -17 6 -25 23 -27 12 -2 22 -10 22 -18 0 -8 -10 -16 -22
-18 -32 -5 -32 -49 -1 -54 31 -4 34 -26 4 -38 -33 -12 -35 -47 -4 -52 31 -4
36 -36 6 -40 -18 -2 -24 -11 -28 -38 -4 -31 -9 -35 -36 -38 -22 -2 -34 -9 -37
-23 -7 -25 -37 -25 -37 1 0 14 -7 20 -24 20 -15 0 -26 -7 -29 -20 -3 -11 -12
-20 -21 -20 -9 0 -16 8 -16 20 0 29 -42 27 -55 -2 -12 -28 -29 -27 -33 2 -5
30 -46 26 -60 -6 -13 -27 -32 -24 -32 6 0 14 -8 20 -32 22 -29 3 -34 7 -38 38
-4 27 -10 36 -28 38 -30 5 -25 36 6 40 32 5 27 46 -6 50 -30 5 -25 36 6 40 32
5 27 46 -6 50 -30 4 -25 36 6 40 31 5 29 40 -4 52 -30 12 -27 34 4 38 18 3 22
10 22 38 0 32 2 34 35 34 27 0 35 4 35 18 0 38 27 43 36 7z"/>
<path d="M4101 4936 c-8 -9 -11 -59 -9 -157 l3 -144 158 -3 158 -3 -3 158 -3
158 -146 3 c-116 2 -149 0 -158 -12z"/>
<path d="M3324 4873 c-96 -181 -101 -188 -135 -193 -53 -9 -78 -30 -250 -214
-88 -94 -164 -172 -169 -174 -4 -2 -13 18 -19 42 -29 115 -154 308 -240 372
-81 59 -138 75 -311 85 -220 12 -299 -7 -400 -98 -117 -105 -251 -383 -299
-620 -28 -134 -70 -426 -78 -535 l-6 -87 35 -35 c47 -47 105 -64 155 -45 55
21 70 59 82 219 14 176 55 416 62 364 1 -5 4 -108 8 -229 l6 -220 415 0 415 0
3 155 c2 151 2 158 -38 323 -23 93 -39 174 -37 180 1 5 13 -30 26 -79 28 -106
54 -171 83 -201 25 -27 84 -31 127 -9 26 14 555 569 574 603 15 25 10 103 -8
131 -10 15 -30 38 -45 52 l-28 25 94 178 c52 98 94 183 94 188 0 30 -27 -11
-116 -178z m-807 -685 c-3 -8 -6 -5 -6 6 -1 11 2 17 5 13 3 -3 4 -12 1 -19z"/>
<path d="M1455 2996 c-55 -25 -119 -90 -141 -142 -38 -90 -4 -226 71 -293 55
-48 100 -64 175 -64 75 0 120 16 175 64 116 103 113 289 -8 395 -77 68 -180
83 -272 40z"/>
<path d="M2698 3007 c-187 -60 -247 -299 -109 -437 160 -160 428 -65 448 160
17 187 -162 333 -339 277z"/>
<path d="M3918 3006 c-131 -36 -217 -176 -188 -308 27 -128 126 -207 261 -208
180 0 299 162 249 342 -35 125 -193 210 -322 174z"/>
<path d="M5112 2997 c-45 -14 -118 -81 -144 -130 -60 -119 -17 -276 95 -341
133 -78 297 -38 369 91 100 178 -26 395 -227 392 -33 -1 -75 -6 -93 -12z"/>
<path d="M743 2955 c-12 -8 -27 -31 -33 -50 -15 -46 14 -154 80 -292 53 -113
86 -165 169 -267 51 -63 102 -109 393 -354 96 -81 136 -126 182 -206 l23 -39
36 59 c76 125 182 203 359 267 15 5 9 14 -32 53 -46 43 -110 148 -110 181 0
27 -83 52 -211 63 -208 18 -331 73 -465 207 -75 76 -135 158 -198 273 -26 47
-57 93 -69 102 -27 22 -95 23 -124 3z"/>
<path d="M2079 2636 c-80 -28 -147 -103 -170 -190 -27 -101 26 -227 120 -283
176 -105 401 15 401 213 0 79 -17 128 -64 181 -72 82 -189 114 -287 79z"/>
<path d="M3300 2635 c-105 -33 -180 -138 -180 -253 0 -108 46 -184 143 -232
134 -67 280 -21 352 111 24 44 29 66 29 119 -1 79 -19 124 -74 184 -70 76
-169 102 -270 71z"/>
<path d="M4528 2636 c-198 -54 -265 -297 -122 -440 97 -98 257 -103 360 -13
67 59 89 107 89 197 0 87 -20 132 -82 192 -66 64 -159 88 -245 64z"/>
<path d="M2621 2355 c-60 -13 -101 -37 -101 -57 0 -29 -57 -122 -102 -167 -28
-28 -49 -53 -47 -54 2 -2 35 -15 73 -31 132 -52 233 -138 296 -250 18 -31 34
-56 36 -56 2 0 15 22 28 49 54 106 171 205 302 257 38 15 71 29 73 30 2 2 -11
16 -29 31 -40 33 -106 133 -115 172 -9 43 -33 59 -114 76 -88 18 -214 18 -300
0z"/>
<path d="M3852 2355 c-78 -14 -122 -36 -122 -61 0 -30 -53 -118 -102 -170
l-49 -52 38 -12 c135 -44 279 -159 337 -271 l30 -56 33 54 c18 30 47 72 64 94
45 58 157 133 244 164 l75 28 -39 33 c-44 38 -93 112 -111 167 -15 49 -40 64
-134 82 -93 18 -166 18 -264 0z"/>
<path d="M5109 2359 c-36 -5 -84 -14 -105 -21 -39 -13 -43 -18 -85 -113 -13
-27 -46 -73 -75 -102 l-51 -51 56 -21 c143 -52 267 -157 325 -275 20 -40 36
-80 36 -89 0 -31 36 -37 232 -37 202 0 261 9 278 39 5 10 10 90 11 177 1 180
-7 213 -67 296 -37 50 -112 112 -171 142 -91 46 -266 71 -384 55z"/>
<path d="M1998 1985 c-91 -22 -185 -74 -248 -136 -97 -95 -118 -162 -116 -376
1 -107 4 -126 22 -150 l21 -28 488 0 488 0 21 28 c19 26 21 41 21 190 0 155
-1 164 -27 220 -53 112 -189 213 -343 252 -74 19 -249 18 -327 0z"/>
<path d="M3226 1984 c-102 -25 -205 -81 -273 -149 -85 -85 -103 -144 -103
-339 0 -123 3 -145 20 -173 l20 -33 490 0 490 0 17 27 c15 23 18 51 18 193 l0
165 -33 67 c-20 42 -50 82 -80 109 -59 52 -183 115 -265 134 -78 18 -223 18
-301 -1z"/>
<path d="M4470 1986 c-188 -40 -303 -114 -364 -234 -29 -56 -46 -161 -46 -282
0 -95 3 -120 19 -146 18 -30 21 -31 117 -37 126 -9 857 -9 879 -1 36 14 45 57
45 218 0 178 -12 224 -76 303 -49 59 -162 133 -250 162 -87 29 -232 36 -324
17z"/>
<path d="M3028 953 c7 -3 16 -2 19 1 4 3 -2 6 -13 5 -11 0 -14 -3 -6 -6z"/>
<path d="M3798 953 c7 -3 16 -2 19 1 4 3 -2 6 -13 5 -11 0 -14 -3 -6 -6z"/>
<path d="M3233 923 c9 -2 25 -2 35 0 9 3 1 5 -18 5 -19 0 -27 -2 -17 -5z"/>
<path d="M3573 923 c9 -2 25 -2 35 0 9 3 1 5 -18 5 -19 0 -27 -2 -17 -5z"/>
</g>
</svg>
